<svg id="fd2ea8df-3071-4098-b79d-f4544ec23171" data-name="Calque 1" xmlns="http://www.w3.org/2000/svg" viewBox="0 0 384 133"><defs><style>.ff10f50f-0674-489b-b496-276871dbc307{fill:#959595;}.b93eb915-0887-47b9-8dff-d4f6d77bd1cc{fill:#e7cac2;}</style></defs><path class="ff10f50f-0674-489b-b496-276871dbc307" d="M9.93,92.84V89.25a6.74,6.74,0,0,0,5-1.75,13.26,13.26,0,0,0,2.89-4.78l2.66-7.08,22.42-61h2.61L69.78,76.51c.58,1.53,1.24,3.49,2,5.88a16.4,16.4,0,0,1,.87,6.09l3.7-.21,3.7-.22v4.79H55.09V89.25c2.76-.08,4.57-.69,5.44-1.85a5.41,5.41,0,0,0,1-4.14,19.1,19.1,0,0,0-1.09-4.35L56.61,68.68l-28.29.65L24.51,81c-.51,1.74-1,3.12-1.36,4.13s-.85,2.14-1.36,3.37l4.3-.21,4.19-.22v4.79ZM30,64.65H55.09L47.36,43.86c-.79-2.25-1.61-4.48-2.44-6.69s-1.66-4.44-2.45-6.69h-.22q-1.09,3-2.23,6.09t-2.34,6.2Z"/><path class="ff10f50f-0674-489b-b496-276871dbc307" d="M83.5,92.84V89.57q3.36,0,4.68-1.68a8.6,8.6,0,0,0,1.52-4.68c.14-2,.22-4.3.22-6.92L90,51.48c0-1.16,0-2.32,0-3.48a25.33,25.33,0,0,1,.38-3.59l-3.86.21-3.87.22V40.27A44.73,44.73,0,0,0,90,39.84a12.8,12.8,0,0,0,3.65-1.09,8.85,8.85,0,0,0,2-1.42h3.15c.07.51.13,1.09.17,1.74s.09,1.38.16,2.18.11,1.71.11,2.72a32.1,32.1,0,0,1,5.28-3.7,29.89,29.89,0,0,1,6.09-2.61,21.82,21.82,0,0,1,6.37-1q9.47,0,13.82,5.93t4.35,18.45V81.3c0,1.45,0,2.74-.05,3.86a26.7,26.7,0,0,1-.38,3.54c1.16-.07,2.3-.12,3.43-.16s2.26-.09,3.42-.16v4.46H119.3V89.57q3.38,0,4.68-1.68a8.6,8.6,0,0,0,1.53-4.68c.14-2,.21-4.3.21-6.92V61.06q-.1-9.36-3.1-14.15t-9.41-4.68a17.43,17.43,0,0,0-7.68,2.07,19.7,19.7,0,0,0-6.25,5,16.62,16.62,0,0,1,.11,2v2.29L99.28,81.3c0,1.45,0,2.74-.06,3.86a25.12,25.12,0,0,1-.38,3.54c1.16-.07,2.3-.12,3.43-.16s2.27-.09,3.43-.16v4.46Z"/><path class="ff10f50f-0674-489b-b496-276871dbc307" d="M182.64,92.84a32.19,32.19,0,0,1-.43-3.27c-.08-.94-.18-1.92-.33-2.94a30.32,30.32,0,0,1-8,5.83,20.33,20.33,0,0,1-9.09,2.12q-8.26,0-12.29-3.76a12.05,12.05,0,0,1-4-9.19,12.9,12.9,0,0,1,3.1-8.65,23.67,23.67,0,0,1,8.05-6,45.69,45.69,0,0,1,10.78-3.48,52.53,52.53,0,0,1,11.26-1V55.73a37.48,37.48,0,0,0-.65-7.19A10.47,10.47,0,0,0,178.18,43q-2.18-2.18-7-2.28a16.1,16.1,0,0,0-6.47,1.19,8.71,8.71,0,0,0-4.84,4.47,4.16,4.16,0,0,1,1.14,2,9.26,9.26,0,0,1,.27,2.12,5.67,5.67,0,0,1-1.09,3c-.72,1.13-2,1.66-3.81,1.58a4.09,4.09,0,0,1-3.48-1.58,6,6,0,0,1-1.2-3.75,9.43,9.43,0,0,1,2.78-6.64,19.17,19.17,0,0,1,7.67-4.68,33.07,33.07,0,0,1,11.1-1.74q9.15,0,13.5,4.84T191,56.81v8.11q0,4.08-.05,8.16c0,2.73-.06,5.46-.06,8.22,0,1.16,0,2.32-.11,3.48s-.18,2.47-.32,3.92l3.86-.22,3.86-.21v4.57Zm-1-26.67a47,47,0,0,0-7.78.93,31.8,31.8,0,0,0-7.51,2.45,15.51,15.51,0,0,0-5.55,4.3,9.57,9.57,0,0,0-2,6.47,7.93,7.93,0,0,0,2.66,6,8.88,8.88,0,0,0,5.83,2,17.05,17.05,0,0,0,7.78-1.69A28.86,28.86,0,0,0,181.66,82c-.07-.79-.11-1.66-.11-2.61V76.4q0-.54.06-3.48T181.66,66.17Z"/><path class="ff10f50f-0674-489b-b496-276871dbc307" d="M204.62,89.57q3.38,0,4.68-1.68a8.52,8.52,0,0,0,1.53-4.68c.14-2,.22-4.3.22-6.92V24.82c0-1.16,0-2.27,0-3.32s.13-2.3.27-3.76l-3.86.22-3.86.22V13.61a48.92,48.92,0,0,0,7.45-.44,15.37,15.37,0,0,0,4-1.09,7.65,7.65,0,0,0,2.12-1.41h3.16l.1,70.63c0,1.45,0,2.74-.1,3.86A33.51,33.51,0,0,1,220,88.7c1.16-.07,2.3-.12,3.43-.16s2.26-.09,3.43-.16v4.46H204.62Z"/><path class="ff10f50f-0674-489b-b496-276871dbc307" d="M262.3,94.58A27.39,27.39,0,0,1,248.48,91a26.29,26.29,0,0,1-9.85-9.79A27.89,27.89,0,0,1,235,66.94a32.73,32.73,0,0,1,3.59-15.46,28,28,0,0,1,9.79-10.83,25.28,25.28,0,0,1,13.93-4,26.82,26.82,0,0,1,13.83,3.65,27.73,27.73,0,0,1,9.9,9.85,27,27,0,0,1,3.7,14.14,32.24,32.24,0,0,1-3.65,15.29,28.72,28.72,0,0,1-9.84,10.94A25,25,0,0,1,262.3,94.58Zm.87-4.35q5.77,0,9.15-3.27a18.52,18.52,0,0,0,4.84-8.49,40.34,40.34,0,0,0,1.47-11,49.75,49.75,0,0,0-.93-9.63,32.47,32.47,0,0,0-2.88-8.6,17.08,17.08,0,0,0-5.06-6.15,12.26,12.26,0,0,0-7.46-2.28,13.22,13.22,0,0,0-9.25,3.26,19.17,19.17,0,0,0-5.27,8.49,36.1,36.1,0,0,0-1.69,11.21,43.23,43.23,0,0,0,1.85,12.79,23.28,23.28,0,0,0,5.66,9.85A13,13,0,0,0,263.17,90.23Z"/><path class="ff10f50f-0674-489b-b496-276871dbc307" d="M325.21,122.33q-9.79,0-15.78-2.17t-8.71-5.56a10.94,10.94,0,0,1-1.14-12.89,16.71,16.71,0,0,1,3.92-4.41A18.52,18.52,0,0,1,308,94.58a14.15,14.15,0,0,1-5.49-3.21,7.26,7.26,0,0,1-2-5.39,10.41,10.41,0,0,1,3.05-7.13,13.09,13.09,0,0,1,7.84-4.08,20.17,20.17,0,0,1-8-6.64,16.71,16.71,0,0,1-3-9.9,19.39,19.39,0,0,1,3.37-11.37,23.05,23.05,0,0,1,8.65-7.51,24,24,0,0,1,10.94-2.67,26.18,26.18,0,0,1,7.18,1,24.8,24.8,0,0,1,6.64,3,17.61,17.61,0,0,1,3.1-5.44,15.2,15.2,0,0,1,4.63-3.76,11.57,11.57,0,0,1,5.44-1.36,5.82,5.82,0,0,1,4.3,1.47,5.36,5.36,0,0,1,1.47,4,5.15,5.15,0,0,1-.44,1.85,4.16,4.16,0,0,1-1.47,1.85,4.55,4.55,0,0,1-2.77.76A4.38,4.38,0,0,1,348.39,39a4.84,4.84,0,0,1-1.52-2.73,6.27,6.27,0,0,0-4.25,2.56,12.62,12.62,0,0,0-2.07,4.63,17.94,17.94,0,0,1,4.19,5.77,16.62,16.62,0,0,1,1.58,7.18,19.09,19.09,0,0,1-3.21,10.88,22,22,0,0,1-8.43,7.46,24.51,24.51,0,0,1-11.32,2.66,20.77,20.77,0,0,1-3.59-.27,21.65,21.65,0,0,0-3.7-.27,10.26,10.26,0,0,0-6.53,2,4.15,4.15,0,0,0-1.74,4.68c.58,1.74,2.35,2.85,5.33,3.32a111.78,111.78,0,0,0,12,1,64.85,64.85,0,0,1,14.37,2,19.22,19.22,0,0,1,9.19,5.06q3.21,3.44,3.21,9.31a13.49,13.49,0,0,1-2.34,7.78,19.17,19.17,0,0,1-6.2,5.71,32.24,32.24,0,0,1-8.6,3.48A38.57,38.57,0,0,1,325.21,122.33Zm-.11-4.24q9.36,0,14.58-3.49t5.23-8.16a7.35,7.35,0,0,0-2.72-6.15,16.65,16.65,0,0,0-7.4-2.94A71,71,0,0,0,324,96.43q-2.94-.11-5.77-.27a51.42,51.42,0,0,1-5.44-.6,14.28,14.28,0,0,0-4.57,4.79,11.75,11.75,0,0,0-1.63,6q0,5.34,5.06,8.55T325.1,118.09Zm-1.41-44.62a11,11,0,0,0,6.69-2,12.06,12.06,0,0,0,4-5.34,20.28,20.28,0,0,0,1.36-7.61,27.5,27.5,0,0,0-1.42-8.93A15.43,15.43,0,0,0,330.16,43a10.08,10.08,0,0,0-7-2.5,10.58,10.58,0,0,0-9.09,4.41,18.07,18.07,0,0,0-3.21,10.93,25.49,25.49,0,0,0,1.53,9.2,13.76,13.76,0,0,0,4.41,6.2A10.93,10.93,0,0,0,323.69,73.47Z"/><path class="b93eb915-0887-47b9-8dff-d4f6d77bd1cc" d="M367.65,94.58a5.87,5.87,0,0,1-4.4-2,7.38,7.38,0,0,1,.05-10,6,6,0,0,1,4.46-2.07,5.74,5.74,0,0,1,4.52,2.07,7.36,7.36,0,0,1,1.79,5,6.84,6.84,0,0,1-2,5A6.06,6.06,0,0,1,367.65,94.58Z"/></svg>